<?xml version="1.0" encoding="utf-8"?>
<!-- Generator: Adobe Illustrator 16.0.0, SVG Export Plug-In . SVG Version: 6.00 Build 0)  -->
<!DOCTYPE svg PUBLIC "-//W3C//DTD SVG 1.1//EN" "http://www.w3.org/Graphics/SVG/1.1/DTD/svg11.dtd">
<svg version="1.1" id="Layer_1" xmlns="http://www.w3.org/2000/svg" xmlns:xlink="http://www.w3.org/1999/xlink" x="0px" y="0px"
	 width="1130.28px" height="201.396px" viewBox="-5.55 -255.028 1130.28 201.396"
	 enable-background="new -5.55 -255.028 1130.28 201.396" xml:space="preserve">
<g>
	<g>
		
			<radialGradient id="SVGID_1_" cx="-8407.9688" cy="-1277.863" r="973.0192" gradientTransform="matrix(0.0964 0 0 0.0964 892.186 -31.1445)" gradientUnits="userSpaceOnUse">
			<stop  offset="0.7742" style="stop-color:#999999"/>
			<stop  offset="1" style="stop-color:#E6E6E6"/>
		</radialGradient>
		<polygon fill="url(#SVGID_1_)" stroke="#929497" stroke-width="0.7324" stroke-miterlimit="10" points="-5.184,-204.464 
			81.658,-254.605 168.5,-204.464 168.5,-104.198 81.658,-54.055 -5.184,-104.198 		"/>
		<path fill="#DBDCDD" stroke="#929497" stroke-width="0.7324" stroke-miterlimit="10" d="M161.227-154.326
			c0,43.941-35.622,79.556-79.568,79.556c-43.935,0-79.556-35.614-79.556-79.556c0-43.945,35.622-79.563,79.556-79.563
			C125.605-233.889,161.227-198.271,161.227-154.326z"/>
		<g>
			<path fill="#034EA1" d="M54.03-195.607l-9.129-18.647l12.786-6.254l1.543,3.154l-9.018,4.414l2.159,4.413l7.782-3.809
				l1.544,3.155l-7.783,3.808l3.878,7.925L54.03-195.607z"/>
			<path fill="#034EA1" d="M79.512-203.509l-0.283-17.245l-6.158,0.1l-0.056-3.512l16.493-0.267l0.061,3.511l-6.148,0.1
				l0.282,17.245L79.512-203.509z"/>
			<path fill="#034EA1" d="M100.6-199.812l8.787-18.809l3.797,1.772l-8.786,18.81L100.6-199.812z"/>
		</g>
		<g>
			<g>
				<path fill="#034EA1" d="M64.214-81.503l-3.334-0.934l3.526-12.555c-1.539,0.795-3.208,1.236-5.014,1.316l0.848-3.023
					c0.948-0.04,2.048-0.314,3.289-0.825c1.24-0.507,2.204-1.235,2.88-2.188l2.703,0.756L64.214-81.503z"/>
				<path fill="#034EA1" d="M78.372-97.735c1.746,0.097,3.077,0.797,3.99,2.1c1.089,1.539,1.544,4.018,1.352,7.434
					c-0.187,3.41-0.914,5.828-2.179,7.253c-1.044,1.178-2.436,1.716-4.181,1.619c-1.756-0.095-3.132-0.847-4.131-2.257
					c-0.999-1.407-1.402-3.841-1.21-7.301c0.187-3.392,0.913-5.802,2.179-7.227C75.229-97.291,76.627-97.83,78.372-97.735z
					 M78.216-94.869c-0.419-0.023-0.802,0.091-1.145,0.338s-0.621,0.71-0.843,1.39c-0.282,0.879-0.489,2.377-0.605,4.49
					c-0.116,2.117-0.091,3.577,0.08,4.379c0.167,0.801,0.409,1.344,0.717,1.623c0.308,0.279,0.671,0.432,1.089,0.455
					c0.418,0.025,0.797-0.089,1.141-0.338c0.342-0.248,0.625-0.711,0.841-1.388c0.288-0.872,0.489-2.366,0.606-4.481
					c0.121-2.116,0.096-3.572-0.076-4.376c-0.171-0.801-0.409-1.346-0.716-1.632C78.992-94.694,78.629-94.844,78.216-94.869z"/>
				<path fill="#034EA1" d="M87.985-79.758l-0.363-3.44l3.44-0.367l0.364,3.439L87.985-79.758z"/>
				<path fill="#034EA1" d="M94.931-84.683l3.132-1.252c0.258,0.636,0.601,1.066,1.02,1.29c0.418,0.223,0.903,0.262,1.447,0.111
					c0.69-0.192,1.19-0.672,1.493-1.438c0.308-0.768,0.252-2.166-0.166-4.197c-0.57,1.205-1.483,1.981-2.739,2.331
					c-1.367,0.38-2.693,0.181-3.979-0.601c-1.286-0.782-2.164-2.018-2.633-3.713c-0.489-1.76-0.363-3.328,0.389-4.701
					c0.746-1.369,1.932-2.279,3.556-2.728c1.765-0.489,3.399-0.21,4.908,0.843c1.513,1.049,2.698,3.136,3.566,6.261
					c0.882,3.18,0.928,5.637,0.142,7.372c-0.787,1.734-2.129,2.864-4.02,3.388c-1.357,0.38-2.557,0.323-3.596-0.171
					C96.408-82.375,95.571-83.309,94.931-84.683z M100.459-94.062c-0.298-1.075-0.777-1.841-1.438-2.298
					c-0.66-0.457-1.311-0.593-1.961-0.414c-0.616,0.173-1.06,0.557-1.332,1.158c-0.273,0.598-0.258,1.451,0.05,2.559
					c0.313,1.122,0.762,1.886,1.352,2.288c0.59,0.403,1.216,0.515,1.881,0.327c0.641-0.176,1.11-0.578,1.408-1.205
					C100.716-92.277,100.731-93.079,100.459-94.062z"/>
			</g>
		</g>
	</g>
	<g>
		<g>
			<path fill="#034EA1" d="M222.023-170.951h-17.55v7.183h15.85l-2.74,10.09h-13.11v11.075c0,2.14,0,4.336,0.716,6.363
				l-10.637,6.797c-1.539-3.069-1.813-6.471-1.813-9.868v-41.731h26.543L222.023-170.951z"/>
			<path fill="#034EA1" d="M237.548-136.24h-11.733v-44.803h11.733V-136.24z"/>
			<path fill="#034EA1" d="M281.475-136.24h-11.734v-13.217l-12.394-15.08h-0.112v28.296h-11.733v-44.803h11.186l13.053,15.246
				v-15.246h11.734V-136.24z"/>
			<path fill="#034EA1" d="M319.053-170.951h-18.042v6.634h16.393l-2.741,10.09h-13.651v7.896h19.244l-2.74,10.091h-28.238v-44.803
				h27.029L319.053-170.951z"/>
			<path fill="#034EA1" d="M375.104-170.951h-12.5v34.711H350.87v-34.711h-12.505l2.741-10.091h31.258L375.104-170.951z"/>
			<path fill="#034EA1" d="M413.554-136.24h-11.733v-20.564h-12.337v14.201c0,2.14,0,4.336,0.709,6.363l-10.637,6.797
				c-1.532-3.069-1.812-6.471-1.812-9.868v-41.731h11.74v14.149h12.337v-14.149h11.733V-136.24z"/>
			<path fill="#034EA1" d="M443.778-181.043c10.637,0,13.602,6.472,13.602,11.571c0,6.525-4.446,10.858-9.597,14.148
				c3.457,6.854,7.953,13.217,12.998,19.084l-9.815,6.797c-7.243-8.225-12.78-17.875-17.22-27.909
				c3.07-2.359,10.363-6.58,10.363-10.803c0-3.016-3.563-2.796-5.649-2.796h-19.026l2.74-10.091H443.778z M433.359-136.24h-11.734
				v-33.341h11.734V-136.24z"/>
			<path fill="#034EA1" d="M492.924-170.951H474.88v6.634h16.398l-2.739,10.09H474.88v7.896h19.251l-2.746,10.091h-28.239v-44.803
				h27.036L492.924-170.951z"/>
			<path fill="#034EA1" d="M532.357-136.24h-11.731v-14.203h-12.83c0.05,5.044,1.918,9.927,4.497,14.203l-9.542,6.305
				c-4.336-6.526-6.969-14.368-6.969-22.265c0-7.785,2.472-15.9,8.065-21.493c6.248-6.308,13.541-7.35,21.984-7.35h5.76l2.74,10.091
				h-9.21c-12.554,0-14.697,6.58-16.179,10.418h11.684v-9.048h11.731V-136.24z"/>
			<path fill="#034EA1" d="M540.097-136.24v-33.341h11.74v23.25c8.059-0.381,13.763-8.117,13.763-16.122
				c0-8.499-6.364-8.499-8.663-8.499h-19.032l2.746-10.091h19.026c13.377,0,17.93,8.5,17.93,17.549
				c0,16.891-13.054,27.254-27.963,27.254H540.097z"/>
			<path fill="#034EA1" d="M631.197-170.951h-17.549v7.183h15.851l-2.74,10.09h-13.11v11.075c0,2.14,0,4.336,0.715,6.363
				l-10.636,6.797c-1.539-3.069-1.813-6.471-1.813-9.868v-41.731h26.544L631.197-170.951z"/>
			<path fill="#034EA1" d="M632.524-164.208c0-9.705,4.658-17.822,20.397-17.822c15.737,0,20.396,8.117,20.396,17.822
				c0,11.901-6.578,28.954-20.396,28.954C639.102-135.254,632.524-152.306,632.524-164.208z M661.092-163.658
				c0-5.978-2.41-7.897-8.17-7.897c-5.755,0-8.173,1.92-8.173,7.897c0,8.114,3.731,17.822,8.173,17.822
				C657.361-145.836,661.092-155.544,661.092-163.658z"/>
			<path fill="#034EA1" d="M701.025-181.043c10.638,0,13.595,6.472,13.595,11.571c0,6.525-4.44,10.858-9.597,14.148
				c3.457,6.854,7.953,13.217,12.998,19.084l-9.815,6.797c-7.237-8.225-12.774-17.875-17.22-27.909
				c3.07-2.359,10.362-6.58,10.362-10.803c0-3.016-3.562-2.796-5.643-2.796h-19.031l2.745-10.091H701.025z M690.605-136.24h-11.739
				v-33.341h11.739V-136.24z"/>
			<path fill="#034EA1" d="M762.009-136.24h-11.733v-27.089h-0.106l-9.05,12.063l-8.83-12.063h-0.107v27.089h-11.738v-44.803h11.135
				l9.541,13.162l9.76-13.162h11.13V-136.24z"/>
			<path fill="#034EA1" d="M800.852-136.24h-11.734v-44.803h11.734V-136.24z"/>
			<path fill="#034EA1" d="M844.783-136.24h-11.74v-13.217l-12.389-15.08h-0.111v28.296H808.81v-44.803h11.186l13.048,15.246
				v-15.246h11.74V-136.24z"/>
			<path fill="#034EA1" d="M852.741-136.24v-33.341h11.733v23.25c8.06-0.381,13.764-8.117,13.764-16.122
				c0-8.499-6.359-8.499-8.662-8.499h-19.027l2.74-10.091h19.027c13.383,0,17.93,8.5,17.93,17.549
				c0,16.891-13.048,27.254-27.963,27.254H852.741z"/>
			<path fill="#034EA1" d="M929.744-136.24h-19.033c-13.104,0-17.763-8.063-17.763-18.427c0-9.376,3.618-18.095,7.784-26.376H913.4
				c-2.578,5.759-8.444,16.781-8.444,26.215c0,8.497,6.358,8.497,8.662,8.497h4.385v-34.712h11.741V-136.24z"/>
			<path fill="#034EA1" d="M962.053-170.951h-9.873c-1.151,0-4.333-0.275-4.333,1.479c0,1.261,1.097,2.248,1.918,3.126l8.173,9.048
				c2.795,3.07,5.536,6.249,5.536,10.694c0,4-2.249,10.363-12.064,10.363h-13.652l-2.74-10.091h10.639
				c1.151,0,4.328,0.275,4.328-1.479c0-1.265-1.097-2.249-1.919-3.127l-7.946-8.993c-2.747-3.127-5.487-6.308-5.487-10.749
				c0-4.002,2.249-10.365,12.064-10.365h12.611L962.053-170.951z"/>
			<path fill="#034EA1" d="M999.29-170.951h-12.501v34.711h-11.734v-34.711h-12.504l2.74-10.091h31.258L999.29-170.951z"/>
			<path fill="#034EA1" d="M1024.088-181.043c10.637,0,13.596,6.472,13.596,11.571c0,6.525-4.439,10.858-9.596,14.148
				c3.455,6.854,7.952,13.217,12.997,19.084l-9.816,6.797c-7.237-8.225-12.774-17.875-17.219-27.909
				c3.069-2.359,10.363-6.58,10.363-10.803c0-3.016-3.563-2.796-5.644-2.796h-19.031l2.744-10.091H1024.088z M1013.668-136.24
				h-11.738v-33.341h11.738V-136.24z"/>
			<path fill="#034EA1" d="M1055.352-136.24h-11.734v-44.803h11.734V-136.24z"/>
			<path fill="#034EA1" d="M1092.975-170.951h-18.042v6.634h16.397l-2.741,10.09h-13.656v7.896h19.25l-2.746,10.091h-28.239v-44.803
				h27.037L1092.975-170.951z"/>
			<path fill="#034EA1" d="M1123.31-170.951h-9.87c-1.152,0-4.335-0.275-4.335,1.479c0,1.261,1.097,2.248,1.918,3.126l8.171,9.048
				c2.797,3.07,5.537,6.249,5.537,10.694c0,4-2.247,10.363-12.063,10.363h-13.651l-2.741-10.091h10.638
				c1.152,0,4.329,0.275,4.329-1.479c0-1.265-1.097-2.249-1.919-3.127l-7.947-8.993c-2.746-3.127-5.486-6.308-5.486-10.749
				c0-4.002,2.249-10.365,12.063-10.365h12.613L1123.31-170.951z"/>
		</g>
		<g>
			<path fill="#58595B" d="M386.261-206.69h-10.436l-1.588,4.364h-2.461l7.557-20.618h3.26l7.701,20.618h-2.432L386.261-206.69z
				 M385.585-208.443l-4.58-12.598l-4.514,12.598H385.585z"/>
			<path fill="#58595B" d="M410.02-222.944v20.618h-3.82l-8.642-14.032l-1.403-2.311l-0.693-1.148l-0.695-1.148h-0.061l0.017,0.77
				l0.011,0.786v1.541v15.542h-2.326v-20.618h3.808l7.54,12.296l1.962,3.232l0.979,1.602l0.968,1.615h0.062l-0.016-0.769
				l-0.017-0.786v-1.541v-15.649H410.02z"/>
			<path fill="#58595B" d="M424.008-222.944v20.618h-2.327v-20.618H424.008z"/>
			<path fill="#58595B" d="M442.116-217.354h-2.309c0-1.661-0.28-2.716-0.833-3.165c-0.553-0.447-1.856-0.672-3.909-0.672
				c-2.439,0-4.01,0.214-4.715,0.642c-0.704,0.429-1.057,1.383-1.057,2.864c0,1.661,0.28,2.673,0.834,3.036
				c0.553,0.362,2.198,0.61,4.938,0.74c3.21,0.141,5.25,0.55,6.124,1.223c0.873,0.676,1.308,2.186,1.308,4.532
				c0,2.538-0.503,4.18-1.503,4.924c-1.002,0.746-3.216,1.118-6.64,1.118c-2.969,0-4.944-0.375-5.929-1.126
				c-0.983-0.75-1.471-2.262-1.471-4.538l-0.017-0.922h2.311v0.515c0,1.841,0.286,2.988,0.844,3.435
				c0.565,0.449,2.013,0.672,4.34,0.672c2.668,0,4.307-0.224,4.921-0.672c0.616-0.447,0.923-1.643,0.923-3.586
				c0-1.259-0.211-2.097-0.625-2.515c-0.42-0.418-1.293-0.667-2.624-0.748l-2.416-0.121l-2.299-0.121
				c-3.489-0.242-5.24-2.054-5.24-5.438c0-2.347,0.509-3.913,1.527-4.697c1.017-0.785,3.048-1.178,6.085-1.178
				c3.081,0,5.094,0.364,6.029,1.094C441.647-221.33,442.116-219.761,442.116-217.354z"/>
			<path fill="#58595B" d="M452.828-223.154c3.897,0,6.33,0.569,7.309,1.707c0.979,1.138,1.466,3.982,1.466,8.533
				c0,4.905-0.47,7.931-1.404,9.08c-0.94,1.147-3.396,1.721-7.371,1.721c-3.961,0-6.41-0.569-7.367-1.706
				c-0.951-1.139-1.426-4.079-1.426-8.821v-1.45l0.034-1.95c0-2.739,0.615-4.608,1.845-5.611
				C447.15-222.655,449.455-223.154,452.828-223.154z M452.81-221.192c-3.26,0-5.167,0.364-5.72,1.088
				c-0.554,0.726-0.834,3.213-0.834,7.462c0,4.259,0.28,6.752,0.834,7.476c0.553,0.726,2.46,1.087,5.72,1.087
				c3.272,0,5.185-0.361,5.745-1.087c0.553-0.724,0.827-3.217,0.827-7.476v-1.345l-0.017-1.948c0-2.276-0.38-3.721-1.147-4.336
				C457.453-220.884,455.652-221.192,452.81-221.192z"/>
			<path fill="#58595B" d="M480.104-222.944l-18.121,26.811h-1.74l18.138-26.811H480.104z"/>
			<path fill="#58595B" d="M491.435-220.783v18.458h-2.326v-18.458h-6.724v-2.16h15.711v2.16H491.435z"/>
			<path fill="#58595B" d="M514.306-217.354h-2.31c0-1.661-0.28-2.716-0.834-3.165c-0.554-0.447-1.857-0.672-3.91-0.672
				c-2.438,0-4.009,0.214-4.715,0.642c-0.705,0.429-1.057,1.383-1.057,2.864c0,1.661,0.279,2.673,0.833,3.036
				c0.554,0.362,2.198,0.61,4.938,0.74c3.21,0.141,5.252,0.55,6.125,1.223c0.872,0.676,1.309,2.186,1.309,4.532
				c0,2.538-0.505,4.18-1.505,4.924c-1.002,0.746-3.216,1.118-6.639,1.118c-2.97,0-4.944-0.375-5.929-1.126
				c-0.984-0.75-1.471-2.262-1.471-4.538l-0.016-0.922h2.309v0.515c0,1.841,0.286,2.988,0.846,3.435
				c0.565,0.449,2.013,0.672,4.34,0.672c2.667,0,4.306-0.224,4.922-0.672c0.615-0.447,0.922-1.643,0.922-3.586
				c0-1.259-0.212-2.097-0.626-2.515c-0.419-0.418-1.292-0.667-2.625-0.748l-2.415-0.121l-2.299-0.121
				c-3.491-0.242-5.241-2.054-5.241-5.438c0-2.347,0.508-3.913,1.527-4.697c1.018-0.785,3.049-1.178,6.085-1.178
				c3.081,0,5.095,0.364,6.03,1.094C513.836-221.33,514.306-219.761,514.306-217.354z"/>
			<path fill="#58595B" d="M535.478-222.944v20.618h-2.328v-18.88l-5.268,5.845l-1.463-1.39l5.708-6.193H535.478z"/>
			<path fill="#58595B" d="M558.576-217.732h-2.265c0.038-0.372,0.062-0.62,0.062-0.74c0-1.098-0.28-1.825-0.833-2.183
				c-0.554-0.357-1.689-0.537-3.4-0.537c-2.595,0-4.239,0.222-4.928,0.666c-0.694,0.443-1.034,1.495-1.034,3.156v4.2h0.044
				c0.873-1.229,2.852-1.843,5.934-1.843c2.769,0,4.62,0.422,5.56,1.269c0.934,0.845,1.403,2.518,1.403,5.015
				c0,2.708-0.486,4.488-1.464,5.338c-0.979,0.851-3.021,1.277-6.13,1.277c-3.172,0-5.257-0.466-6.253-1.397
				c-1-0.931-1.499-2.881-1.499-5.853l-0.044-3.746l0.062-3.323c0-2.718,0.475-4.518,1.42-5.401c0.945-0.88,2.88-1.32,5.799-1.32
				c2.948,0,4.951,0.327,6.002,0.981c1.052,0.654,1.583,1.899,1.583,3.73L558.576-217.732z M551.417-213.05
				c-2.265,0-3.748,0.226-4.435,0.679c-0.688,0.453-1.035,1.425-1.035,2.916c0,2.418,0.302,3.917,0.906,4.501
				c0.604,0.584,2.154,0.876,4.636,0.876c2.417,0,3.926-0.235,4.52-0.709c0.593-0.473,0.889-1.687,0.889-3.64
				c0-2.095-0.29-3.389-0.876-3.883C555.438-212.802,553.9-213.05,551.417-213.05z"/>
			<path fill="#58595B" d="M562.759-207.581h2.188l-0.012,0.604c0,1.268,0.303,2.069,0.907,2.4c0.603,0.333,2.041,0.499,4.316,0.499
				c2.595,0,4.184-0.254,4.76-0.763c0.57-0.507,0.861-1.916,0.861-4.221v-3.097h-0.05c-0.806,1.229-2.87,1.843-6.192,1.843
				c-2.617,0-4.379-0.417-5.284-1.253c-0.906-0.836-1.359-2.457-1.359-4.864c0-2.759,0.476-4.57,1.433-5.43
				c0.961-0.861,2.969-1.291,6.028-1.291c3.143,0,5.224,0.448,6.234,1.343c1.019,0.897,1.528,2.735,1.528,5.513l0.061,5.544
				l-0.044,2.129c0,2.639-0.498,4.383-1.493,5.234c-1.001,0.851-3.049,1.277-6.152,1.277c-3.048,0-5.105-0.315-6.175-0.944
				c-1.068-0.629-1.599-1.849-1.599-3.664C562.715-206.882,562.726-207.169,562.759-207.581z M570.143-221.192
				c-2.244,0-3.648,0.245-4.2,0.733c-0.554,0.489-0.829,1.725-0.829,3.708c0,1.944,0.275,3.175,0.818,3.694
				c0.542,0.519,1.839,0.778,3.897,0.778c2.667,0,4.323-0.209,4.966-0.627c0.643-0.417,0.968-1.487,0.968-3.21
				c0-2.306-0.298-3.728-0.89-4.268C574.275-220.922,572.703-221.192,570.143-221.192z"/>
			<path fill="#58595B" d="M594.855-222.944v13.897h3.083v1.963h-3.083v4.757h-2.326v-4.757H580.99v-2.734l10.271-13.126H594.855z
				 M592.529-209.047v-12.401h-0.044l-9.575,12.401H592.529z"/>
			<path fill="#58595B" d="M600.717-207.581h2.188l-0.012,0.604c0,1.268,0.302,2.069,0.906,2.4c0.604,0.333,2.041,0.499,4.317,0.499
				c2.596,0,4.182-0.254,4.759-0.763c0.57-0.507,0.862-1.916,0.862-4.221v-3.097h-0.051c-0.807,1.229-2.869,1.843-6.191,1.843
				c-2.617,0-4.379-0.417-5.284-1.253c-0.907-0.836-1.36-2.457-1.36-4.864c0-2.759,0.477-4.57,1.433-5.43
				c0.962-0.861,2.97-1.291,6.029-1.291c3.144,0,5.222,0.448,6.235,1.343c1.018,0.897,1.527,2.735,1.527,5.513l0.062,5.544
				l-0.046,2.129c0,2.639-0.497,4.383-1.493,5.234c-1.001,0.851-3.047,1.277-6.152,1.277c-3.048,0-5.105-0.315-6.174-0.944
				c-1.068-0.629-1.599-1.849-1.599-3.664C600.674-206.882,600.685-207.169,600.717-207.581z M608.1-221.192
				c-2.242,0-3.646,0.245-4.201,0.733c-0.552,0.489-0.826,1.725-0.826,3.708c0,1.944,0.274,3.175,0.816,3.694
				c0.543,0.519,1.841,0.778,3.898,0.778c2.667,0,4.323-0.209,4.966-0.627c0.644-0.417,0.968-1.487,0.968-3.21
				c0-2.306-0.297-3.728-0.889-4.268C612.234-220.922,610.662-221.192,608.1-221.192z"/>
			<path fill="#58595B" d="M622.311-216.764v2.778h-2.326v-2.778H622.311z M622.311-205.105v2.779h-2.326v-2.779H622.311z"/>
			<path fill="#58595B" d="M640.695-204.288v1.962h-14.844v-3.881c0-2.176,0.42-3.6,1.266-4.274
				c0.849-0.676,2.856-1.194,6.027-1.556c2.54-0.283,4.072-0.665,4.598-1.148c0.532-0.484,0.794-1.739,0.794-3.762
				c0-1.773-0.297-2.922-0.884-3.452s-1.873-0.793-3.858-0.793c-2.478,0-4.039,0.214-4.688,0.642
				c-0.653,0.429-0.979,1.459-0.979,3.091l0.034,1.54h-2.281l0.016-1.072c0-2.468,0.52-4.112,1.561-4.932
				c1.041-0.82,3.132-1.23,6.264-1.23c2.773,0,4.643,0.443,5.604,1.329c0.958,0.885,1.433,2.613,1.433,5.18
				c0,2.468-0.447,4.116-1.337,4.947c-0.89,0.831-2.824,1.393-5.806,1.684c-2.618,0.263-4.184,0.625-4.687,1.087
				c-0.504,0.464-0.755,1.777-0.755,3.943v0.695H640.695z"/>
			<path fill="#58595B" d="M652.631-223.154c3.813,0,6.118,0.512,6.9,1.532c0.783,1.023,1.182,4.016,1.182,8.98
				c0,4.733-0.375,7.602-1.119,8.608c-0.957,1.28-3.277,1.919-6.963,1.919c-3.688,0-6.007-0.639-6.965-1.919
				c-0.748-1.007-1.118-4.123-1.118-9.35c0-4.521,0.415-7.28,1.236-8.277C646.613-222.657,648.895-223.154,652.631-223.154z
				 M652.631-221.192c-2.891,0-4.593,0.374-5.102,1.119c-0.509,0.746-0.76,3.221-0.76,7.432c0,4.218,0.251,6.701,0.76,7.445
				c0.509,0.747,2.211,1.118,5.102,1.118c2.886,0,4.586-0.371,5.094-1.118c0.51-0.744,0.767-3.227,0.767-7.445
				c0-4.21-0.257-6.686-0.767-7.432C657.217-220.818,655.517-221.192,652.631-221.192z"/>
			<path fill="#58595B" d="M671.6-223.154c3.815,0,6.12,0.512,6.902,1.532c0.783,1.023,1.18,4.016,1.18,8.98
				c0,4.733-0.374,7.602-1.117,8.608c-0.957,1.28-3.278,1.919-6.965,1.919c-3.685,0-6.005-0.639-6.961-1.919
				c-0.75-1.007-1.119-4.123-1.119-9.35c0-4.521,0.414-7.28,1.236-8.277C665.583-222.657,667.865-223.154,671.6-223.154z
				 M671.6-221.192c-2.889,0-4.59,0.374-5.1,1.119c-0.509,0.746-0.76,3.221-0.76,7.432c0,4.218,0.251,6.701,0.76,7.445
				c0.51,0.747,2.211,1.118,5.1,1.118c2.888,0,4.587-0.371,5.097-1.118c0.508-0.744,0.767-3.227,0.767-7.445
				c0-4.21-0.259-6.686-0.767-7.432C676.187-220.818,674.487-221.192,671.6-221.192z"/>
			<path fill="#58595B" d="M682.658-207.581h2.186l-0.011,0.604c0,1.268,0.302,2.069,0.907,2.4c0.604,0.333,2.041,0.499,4.316,0.499
				c2.595,0,4.184-0.254,4.76-0.763c0.57-0.507,0.861-1.916,0.861-4.221v-3.097h-0.05c-0.806,1.229-2.87,1.843-6.191,1.843
				c-2.618,0-4.378-0.417-5.286-1.253c-0.904-0.836-1.358-2.457-1.358-4.864c0-2.759,0.476-4.57,1.433-5.43
				c0.961-0.861,2.969-1.291,6.028-1.291c3.144,0,5.224,0.448,6.235,1.343c1.019,0.897,1.527,2.735,1.527,5.513l0.062,5.544
				l-0.045,2.129c0,2.639-0.497,4.383-1.492,5.234c-1.003,0.851-3.049,1.277-6.152,1.277c-3.049,0-5.106-0.315-6.175-0.944
				c-1.068-0.629-1.6-1.849-1.6-3.664C682.613-206.882,682.624-207.169,682.658-207.581z M690.04-221.192
				c-2.243,0-3.646,0.245-4.199,0.733c-0.555,0.489-0.829,1.725-0.829,3.708c0,1.944,0.274,3.175,0.817,3.694
				c0.542,0.519,1.839,0.778,3.898,0.778c2.668,0,4.323-0.209,4.968-0.627c0.641-0.417,0.967-1.487,0.967-3.21
				c0-2.306-0.298-3.728-0.891-4.268C694.174-220.922,692.603-221.192,690.04-221.192z"/>
			<path fill="#58595B" d="M723.283-209.213h2.316v0.785c0,2.809-0.482,4.564-1.438,5.264c-0.957,0.7-3.361,1.05-7.22,1.05
				c-3.451,0-5.648-0.617-6.583-1.851c-0.94-1.233-1.404-4.136-1.404-8.708c0-3.574,0.102-5.822,0.313-6.744
				c0.213-0.922,0.817-1.745,1.812-2.471c1.17-0.846,3.691-1.268,7.568-1.268c2.627,0,4.4,0.408,5.312,1.223
				c0.912,0.816,1.366,2.393,1.366,4.727l0.017,0.56h-2.31l-0.018-0.634c0-1.661-0.269-2.729-0.812-3.202
				c-0.536-0.473-1.75-0.71-3.646-0.71c-3.322,0-5.353,0.278-6.085,0.832c-0.739,0.554-1.103,2.089-1.103,4.605
				c0,5.792,0.246,9.184,0.738,10.181c0.492,0.997,2.182,1.496,5.062,1.496c2.735,0,4.446-0.216,5.13-0.649
				c0.676-0.432,1.019-1.521,1.019-3.262L723.283-209.213z"/>
			<path fill="#58595B" d="M738.166-206.69h2.16l0.016,0.528c0,1.5-0.459,2.551-1.369,3.149c-0.913,0.6-2.507,0.899-4.794,0.899
				c-2.656,0-4.401-0.485-5.235-1.458c-0.827-0.972-1.247-3.013-1.247-6.125c0-2.88,0.42-4.813,1.254-5.801
				c0.839-0.986,2.471-1.48,4.91-1.48c2.662,0,4.401,0.429,5.229,1.285c0.821,0.855,1.236,2.658,1.236,5.407v1.132h-10.392
				c0,2.276,0.246,3.726,0.732,4.35c0.486,0.625,1.628,0.938,3.423,0.938c1.699,0,2.808-0.148,3.311-0.446
				c0.509-0.297,0.766-0.938,0.766-1.926V-206.69z M738.166-210.799l-0.016-0.68c0-1.562-0.258-2.576-0.772-3.044
				c-0.509-0.468-1.616-0.703-3.321-0.703c-1.713,0-2.819,0.275-3.329,0.823c-0.509,0.55-0.767,1.751-0.767,3.604H738.166z"/>
			<path fill="#58595B" d="M743.877-216.764h2.114l-0.212,1.661l0.043,0.044c0.84-1.358,2.216-2.038,4.14-2.038
				c2.657,0,3.987,1.368,3.987,4.108l-0.017,0.997h-2.081l0.045-0.362c0.028-0.383,0.047-0.639,0.047-0.771
				c0-1.481-0.808-2.22-2.417-2.22c-2.361,0-3.535,1.455-3.535,4.365v8.654h-2.114V-216.764z"/>
			<path fill="#58595B" d="M763.647-216.764v1.751h-5.56v8.835c0,1.541,0.688,2.312,2.058,2.312c1.359,0,2.036-0.689,2.036-2.069
				l0.017-0.71l0.028-0.8h1.963l0.018,1.073c0,2.84-1.349,4.259-4.049,4.259c-2.786,0-4.185-1.183-4.185-3.549v-0.515v-8.835h-1.991
				v-1.751h1.991v-3.475h2.114v3.475H763.647z"/>
			<path fill="#58595B" d="M768.178-222.944v2.372h-2.114v-2.372H768.178z M768.178-216.764v14.438h-2.114v-14.438H768.178z"/>
			<path fill="#58595B" d="M772.439-202.326v-12.687h-2.204v-1.751h2.204v-2.145c0-2.83,1.454-4.245,4.362-4.245
				c0.436,0,0.946,0.034,1.527,0.106v1.751c-0.682-0.071-1.181-0.106-1.494-0.106c-1.521,0-2.282,0.766-2.282,2.295v2.343h3.776
				v1.751h-3.776v12.687H772.439z"/>
			<path fill="#58595B" d="M782.198-222.944v2.372h-2.12v-2.372H782.198z M782.198-216.764v14.438h-2.12v-14.438H782.198z"/>
			<path fill="#58595B" d="M795.939-206.69h2.159l0.017,0.528c0,1.5-0.458,2.551-1.369,3.149c-0.912,0.6-2.506,0.899-4.793,0.899
				c-2.657,0-4.403-0.485-5.235-1.458c-0.828-0.972-1.247-3.013-1.247-6.125c0-2.88,0.419-4.813,1.253-5.801
				c0.84-0.986,2.472-1.48,4.91-1.48c2.661,0,4.402,0.429,5.229,1.285c0.822,0.855,1.235,2.658,1.235,5.407v1.132h-10.391
				c0,2.276,0.245,3.726,0.731,4.35c0.487,0.625,1.629,0.938,3.425,0.938c1.699,0,2.807-0.148,3.31-0.446
				c0.51-0.297,0.766-0.938,0.766-1.926V-206.69z M795.939-210.799l-0.016-0.68c0-1.562-0.256-2.576-0.772-3.044
				c-0.509-0.468-1.616-0.703-3.322-0.703c-1.711,0-2.817,0.275-3.327,0.823c-0.509,0.55-0.768,1.751-0.768,3.604H795.939z"/>
			<path fill="#58595B" d="M813.507-222.944v20.618h-2.114l0.107-1.874l-0.062-0.013c-0.667,1.399-2.209,2.099-4.638,2.099
				c-2.214,0-3.73-0.539-4.54-1.617c-0.812-1.076-1.214-3.086-1.214-6.026c0-2.708,0.408-4.588,1.219-5.642
				c0.816-1.051,2.276-1.579,4.385-1.579c2.628,0,4.195,0.679,4.698,2.04l0.044-0.031v-7.975H813.507z M807.149-215.225
				c-1.562,0-2.602,0.361-3.116,1.081c-0.509,0.72-0.766,2.177-0.766,4.372c0,2.417,0.251,4.006,0.76,4.767
				c0.509,0.759,1.567,1.14,3.166,1.14c1.739,0,2.874-0.381,3.4-1.14c0.52-0.761,0.783-2.415,0.783-4.962
				c0-2.064-0.291-3.457-0.868-4.177C809.928-214.864,808.81-215.225,807.149-215.225z"/>
			<path fill="#58595B" d="M838.579-209.213h2.311v0.785c0,2.809-0.476,4.564-1.433,5.264c-0.961,0.7-3.365,1.05-7.22,1.05
				c-3.456,0-5.648-0.617-6.587-1.851c-0.936-1.233-1.405-4.136-1.405-8.708c0-3.574,0.106-5.822,0.319-6.744
				c0.213-0.922,0.816-1.745,1.812-2.471c1.17-0.846,3.692-1.268,7.567-1.268c2.629,0,4.396,0.408,5.307,1.223
				c0.912,0.816,1.371,2.393,1.371,4.727l0.012,0.56h-2.311l-0.017-0.634c0-1.661-0.268-2.729-0.805-3.202
				c-0.543-0.473-1.757-0.71-3.647-0.71c-3.327,0-5.352,0.278-6.09,0.832c-0.732,0.554-1.104,2.089-1.104,4.605
				c0,5.792,0.248,9.184,0.74,10.181c0.496,0.997,2.182,1.496,5.061,1.496c2.74,0,4.453-0.216,5.129-0.649
				c0.684-0.432,1.02-1.521,1.02-3.262L838.579-209.213z"/>
			<path fill="#58595B" d="M849.38-216.977c2.667,0,4.4,0.464,5.196,1.39c0.793,0.927,1.196,2.94,1.196,6.042
				c0,3.103-0.403,5.116-1.196,6.042c-0.796,0.927-2.529,1.391-5.196,1.391c-2.657,0-4.386-0.463-5.179-1.391
				c-0.795-0.925-1.191-2.938-1.191-6.042c0-3.101,0.396-5.115,1.191-6.042C844.994-216.513,846.723-216.977,849.38-216.977z
				 M849.38-215.225c-1.874,0-3.031,0.305-3.479,0.915c-0.447,0.609-0.671,2.198-0.671,4.765c0,2.569,0.224,4.157,0.671,4.767
				c0.448,0.608,1.605,0.913,3.479,0.913c1.884,0,3.048-0.305,3.495-0.913c0.447-0.61,0.677-2.198,0.677-4.767
				c0-2.567-0.229-4.155-0.677-4.765C852.428-214.921,851.264-215.225,849.38-215.225z"/>
			<path fill="#58595B" d="M859.061-216.764h2.114l-0.044,2.174l0.044,0.046c0.816-1.622,2.389-2.433,4.714-2.433
				c2.445,0,3.933,0.811,4.453,2.433h0.062c0.906-1.622,2.561-2.433,4.973-2.433c3.399,0,5.1,1.738,5.1,5.211v9.44h-2.114v-9.636
				c0-1.269-0.223-2.129-0.676-2.583c-0.454-0.454-1.31-0.681-2.568-0.681c-1.672,0-2.807,0.316-3.399,0.945s-0.89,1.83-0.89,3.602
				v8.353h-2.113v-9.44l-0.034-0.664c0-1.863-1.063-2.795-3.188-2.795c-2.88,0-4.317,1.566-4.317,4.698v8.201h-2.114V-216.764z"/>
			<path fill="#58595B" d="M884.603-216.764h2.115l-0.106,1.827l0.062,0.044c0.732-1.39,2.315-2.084,4.742-2.084
				c2.142,0,3.619,0.544,4.424,1.632c0.806,1.088,1.208,3.091,1.208,6.012c0,2.708-0.406,4.589-1.22,5.64
				c-0.816,1.053-2.271,1.579-4.351,1.579c-2.377,0-3.949-0.639-4.714-1.919h-0.045v7.9h-2.115V-216.764z M890.828-215.225
				c-1.694,0-2.798,0.367-3.311,1.096c-0.516,0.73-0.772,2.299-0.772,4.705c0,2.225,0.279,3.708,0.833,4.448
				c0.554,0.739,1.667,1.11,3.34,1.11c1.588,0,2.639-0.357,3.148-1.073c0.508-0.714,0.76-2.189,0.76-4.425
				c0-2.457-0.245-4.048-0.736-4.773C893.598-214.862,892.506-215.225,890.828-215.225z"/>
			<path fill="#58595B" d="M902.595-212.717h-2.103c0-1.682,0.38-2.812,1.142-3.392c0.761-0.579,2.247-0.868,4.462-0.868
				c2.412,0,4.033,0.355,4.883,1.066c0.845,0.709,1.265,2.061,1.265,4.054v9.531h-2.114l0.168-1.556l-0.045-0.014
				c-0.806,1.188-2.445,1.782-4.91,1.782c-3.648,0-5.465-1.466-5.465-4.395c0-1.742,0.408-2.946,1.219-3.61
				c0.817-0.666,2.295-0.997,4.43-0.997c2.534,0,4.055,0.498,4.559,1.494l0.045-0.015v-1.752c0-1.651-0.224-2.721-0.676-3.208
				c-0.454-0.488-1.45-0.733-2.977-0.733c-2.602,0-3.897,0.73-3.897,2.19C902.579-213.07,902.585-212.93,902.595-212.717z
				 M905.991-209.471c-1.624,0-2.674,0.172-3.161,0.515c-0.492,0.343-0.732,1.077-0.732,2.205c0,1.167,0.24,1.94,0.721,2.318
				c0.487,0.377,1.467,0.566,2.948,0.566c2.98,0,4.468-0.906,4.468-2.719c0-1.138-0.289-1.904-0.865-2.295
				C908.786-209.273,907.662-209.471,905.991-209.471z"/>
			<path fill="#58595B" d="M916.158-216.764h2.041l-0.061,1.963l0.061,0.045c0.643-1.48,2.243-2.221,4.798-2.221
				c2.064,0,3.463,0.364,4.196,1.087c0.726,0.726,1.094,2.116,1.094,4.169v9.395h-2.118v-9.214v-0.543
				c0-1.238-0.234-2.071-0.704-2.499c-0.477-0.428-1.389-0.643-2.735-0.643c-2.97,0-4.457,1.405-4.457,4.214v8.686h-2.114V-216.764z
				"/>
			<path fill="#58595B" d="M942.365-216.764l-4.093,15.27c-0.576,2.154-1.214,3.635-1.913,4.441c-0.699,0.805-1.7,1.208-2.999,1.208
				c-0.262,0-0.598-0.035-1.011-0.104v-1.752c0.291,0.06,0.536,0.095,0.737,0.104c1.142,0.061,1.986-0.86,2.54-2.764l0.407-1.419
				c0.011-0.05,0.058-0.232,0.134-0.544h-0.799l-5.225-14.438h2.249l2.221,6.435l1.118,3.202l0.544,1.616l0.559,1.602h0.061
				l0.392-1.602l0.381-1.616l0.816-3.202l1.628-6.435H942.365z"/>
		</g>
		<g>
			<path fill="#58595B" d="M369.433-108.928v20.618h-2.32v-16.496v-1.234l0.011-0.622l0.016-0.617h-0.062l-0.179,0.483
				c-0.09,0.239-0.151,0.396-0.185,0.467l-0.392,0.968l-7.024,17.052h-2.327l-7.035-16.857l-0.409-0.949l-0.178-0.483
				c-0.051-0.113-0.113-0.271-0.185-0.472h-0.062l0.016,0.561l0.017,0.575v1.13v16.496h-2.326v-20.618h4.032l5.498,13.34
				l0.877,2.159l0.436,1.071l0.426,1.073h0.057l0.424-1.073c0.212-0.512,0.353-0.871,0.424-1.071l0.89-2.146l5.47-13.354H369.433z"
				/>
			<path fill="#58595B" d="M386.021-92.676h-10.437l-1.588,4.365h-2.461l7.55-20.618h3.261l7.707,20.618h-2.433L386.021-92.676z
				 M385.338-94.427l-4.574-12.601l-4.521,12.601H385.338z"/>
			<path fill="#58595B" d="M409.78-108.928v20.618h-3.82l-8.641-14.032l-1.405-2.313l-0.698-1.146l-0.693-1.146h-0.062l0.017,0.77
				l0.016,0.784v1.542v15.542h-2.326v-20.618h3.803l7.539,12.296l1.964,3.229l0.983,1.604l0.968,1.614h0.056l-0.011-0.768
				l-0.017-0.787v-1.54v-15.649H409.78z"/>
			<path fill="#58595B" d="M427.727-108.928h2.321v14.44c0,2.618-0.526,4.338-1.577,5.157c-1.051,0.822-3.26,1.231-6.622,1.231
				c-3.154,0-5.296-0.393-6.426-1.188c-1.135-0.789-1.7-2.293-1.7-4.508v-0.693v-14.44h2.326v14.44c0,1.952,0.319,3.179,0.951,3.678
				c0.638,0.5,2.198,0.747,4.681,0.747c2.702,0,4.379-0.243,5.045-0.733c0.666-0.485,1.001-1.717,1.001-3.691V-108.928z"/>
			<path fill="#58595B" d="M436.289-106.965v7.205h10.045v1.964h-10.045v9.485h-2.326v-20.618h12.639v1.964H436.289z"/>
			<path fill="#58595B" d="M461.753-92.676h-10.436l-1.589,4.365h-2.461l7.556-20.618h3.261l7.701,20.618h-2.433L461.753-92.676z
				 M461.076-94.427l-4.58-12.601l-4.513,12.601H461.076z"/>
			<path fill="#58595B" d="M481.418-95.198h2.315v0.786c0,2.81-0.481,4.563-1.438,5.264c-0.956,0.701-3.361,1.049-7.22,1.049
				c-3.452,0-5.649-0.616-6.583-1.851c-0.939-1.232-1.404-4.136-1.404-8.707c0-3.574,0.1-5.823,0.313-6.742
				c0.212-0.924,0.817-1.744,1.812-2.473c1.17-0.844,3.691-1.269,7.568-1.269c2.628,0,4.401,0.408,5.313,1.225
				c0.912,0.815,1.365,2.393,1.365,4.726l0.018,0.559h-2.311l-0.017-0.633c0-1.66-0.268-2.728-0.811-3.203
				c-0.537-0.469-1.75-0.71-3.646-0.71c-3.323,0-5.353,0.278-6.085,0.833c-0.739,0.554-1.102,2.09-1.102,4.605
				c0,5.791,0.247,9.184,0.738,10.182c0.492,0.996,2.181,1.494,5.062,1.494c2.735,0,4.446-0.215,5.129-0.648
				c0.677-0.431,1.018-1.523,1.018-3.261L481.418-95.198z"/>
			<path fill="#58595B" d="M493.55-106.77v18.46h-2.328v-18.46H484.5v-2.158h15.711v2.158H493.55z"/>
			<path fill="#58595B" d="M516.296-108.928h2.328v14.44c0,2.618-0.527,4.338-1.579,5.157c-1.051,0.822-3.26,1.231-6.626,1.231
				c-3.149,0-5.291-0.393-6.426-1.188c-1.13-0.789-1.695-2.293-1.695-4.508v-0.693v-14.44h2.321v14.44
				c0,1.952,0.319,3.179,0.956,3.678c0.632,0.5,2.192,0.747,4.681,0.747c2.697,0,4.38-0.243,5.045-0.733
				c0.666-0.485,0.996-1.717,0.996-3.691V-108.928z"/>
			<path fill="#58595B" d="M522.539-88.31v-20.618h9.813c2.214,0,3.774,0.438,4.681,1.314c0.911,0.879,1.364,2.396,1.364,4.563
				c0,1.902-0.251,3.229-0.743,3.978c-0.493,0.753-1.432,1.236-2.824,1.46v0.045c2.187,0.162,3.276,1.489,3.276,3.987v5.271h-2.326
				v-4.743c0-2.407-1.041-3.609-3.127-3.609h-0.766h-7.023v8.353H522.539z M524.863-98.628h6.722c1.767,0,2.975-0.268,3.624-0.807
				c0.644-0.539,0.968-1.553,0.968-3.047c0-1.861-0.241-3.075-0.722-3.636c-0.476-0.565-1.499-0.848-3.07-0.848h-7.521V-98.628z"/>
			<path fill="#58595B" d="M543.303-106.965v7.024h10.469v1.963h-10.469v7.704h10.921v1.963h-13.249v-20.618h13.249v1.964H543.303z"
				/>
			<path fill="#58595B" d="M557.211-88.31v-20.618h9.821c2.215,0,3.775,0.438,4.681,1.314c0.906,0.879,1.36,2.396,1.36,4.563
				c0,1.902-0.246,3.229-0.739,3.978c-0.498,0.753-1.437,1.236-2.825,1.46v0.045c2.182,0.162,3.278,1.489,3.278,3.987v5.271h-2.326
				v-4.743c0-2.407-1.047-3.609-3.127-3.609h-0.771h-7.024v8.353H557.211z M559.539-98.628h6.721c1.773,0,2.981-0.268,3.625-0.807
				c0.643-0.539,0.967-1.553,0.967-3.047c0-1.861-0.239-3.075-0.715-3.636c-0.48-0.565-1.506-0.848-3.076-0.848h-7.522V-98.628z"/>
			<path fill="#58595B" d="M591.758-109.14c3.898,0,6.332,0.569,7.31,1.708c0.979,1.137,1.466,3.982,1.466,8.531
				c0,4.906-0.471,7.933-1.404,9.08c-0.939,1.15-3.395,1.722-7.371,1.722c-3.959,0-6.41-0.569-7.366-1.707
				c-0.95-1.135-1.425-4.077-1.425-8.821v-1.447l0.032-1.951c0-2.738,0.616-4.61,1.845-5.61
				C586.082-108.637,588.386-109.14,591.758-109.14z M591.742-107.177c-3.261,0-5.168,0.364-5.723,1.09
				c-0.553,0.726-0.832,3.211-0.832,7.46c0,4.26,0.279,6.751,0.832,7.479c0.555,0.724,2.462,1.085,5.723,1.085
				c3.271,0,5.184-0.361,5.742-1.085c0.554-0.729,0.828-3.22,0.828-7.479v-1.344l-0.016-1.95c0-2.276-0.382-3.718-1.146-4.333
				C596.383-106.871,594.582-107.177,591.742-107.177z"/>
			<path fill="#58595B" d="M605.517-106.965v7.205h10.044v1.964h-10.044v9.485h-2.327v-20.618h12.646v1.964H605.517z"/>
			<path fill="#58595B" d="M642.749-108.928v20.618h-2.327v-9.562h-12.053v9.562h-2.328v-20.618h2.328v9.094h12.053v-9.094H642.749z
				"/>
			<path fill="#58595B" d="M648.99-108.928v20.618h-2.328v-20.618H648.99z"/>
			<path fill="#58595B" d="M660.32-98.565h8.831c0.044,0.533,0.062,1.28,0.062,2.25c0,3.715-0.453,6.014-1.365,6.896
				c-0.911,0.88-3.288,1.32-7.135,1.32c-3.636,0-5.975-0.521-7.01-1.562c-1.04-1.043-1.555-3.384-1.555-7.019l-0.016-3.035
				l0.016-1.825c0-3.054,0.577-5.082,1.729-6.091c1.153-1.007,3.473-1.51,6.969-1.51c3.508,0,5.767,0.329,6.784,0.99
				c1.019,0.659,1.521,2.132,1.521,4.418v0.785h-2.277v-0.512c0-1.683-0.345-2.724-1.034-3.12c-0.693-0.397-2.495-0.599-5.402-0.599
				c-2.689,0-4.367,0.321-5.045,0.962c-0.676,0.638-1.012,2.237-1.012,4.794l-0.028,2.733l0.011,2.948
				c0,2.595,0.381,4.194,1.131,4.788c0.749,0.592,2.751,0.889,6.001,0.889c2.488,0,4.027-0.28,4.613-0.846
				c0.593-0.564,0.885-2.037,0.885-4.422c0-0.195-0.04-0.617-0.119-1.271h-6.554V-98.565z"/>
			<path fill="#58595B" d="M688.815-108.928v20.618h-2.326v-9.562h-12.052v9.562h-2.328v-20.618h2.328v9.094h12.052v-9.094H688.815z
				"/>
			<path fill="#58595B" d="M707.652-106.77v18.46h-2.326v-18.46h-6.718v-2.158h15.705v2.158H707.652z"/>
			<path fill="#58595B" d="M717.881-106.965v7.024h10.465v1.963h-10.465v7.704h10.917v1.963h-13.244v-20.618h13.244v1.964H717.881z"
				/>
			<path fill="#58595B" d="M749.402-108.928v20.618h-3.819l-8.643-14.032l-1.401-2.313l-0.699-1.146l-0.693-1.146h-0.063l0.016,0.77
				l0.018,0.784v1.542v15.542h-2.326v-20.618h3.804l7.538,12.296l1.964,3.229l0.983,1.604l0.967,1.614h0.057l-0.01-0.768
				l-0.019-0.787v-1.54v-15.649H749.402z"/>
			<path fill="#58595B" d="M767.467-103.341h-2.31c0-1.661-0.28-2.712-0.834-3.162c-0.554-0.448-1.855-0.675-3.908-0.675
				c-2.438,0-4.011,0.215-4.715,0.643c-0.705,0.431-1.058,1.381-1.058,2.863c0,1.662,0.28,2.674,0.833,3.037
				c0.554,0.361,2.198,0.61,4.939,0.739c3.21,0.14,5.251,0.548,6.123,1.224c0.874,0.674,1.31,2.184,1.31,4.53
				c0,2.539-0.504,4.179-1.505,4.925c-1,0.747-3.216,1.117-6.639,1.117c-2.97,0-4.943-0.375-5.928-1.125
				c-0.985-0.75-1.472-2.262-1.472-4.538l-0.018-0.921h2.311v0.515c0,1.84,0.286,2.986,0.845,3.434
				c0.566,0.446,2.015,0.672,4.341,0.672c2.668,0,4.307-0.226,4.922-0.672c0.615-0.447,0.922-1.645,0.922-3.585
				c0-1.261-0.212-2.098-0.627-2.517c-0.418-0.419-1.291-0.666-2.622-0.749l-2.415-0.118l-2.3-0.121
				c-3.49-0.242-5.24-2.055-5.24-5.439c0-2.348,0.508-3.913,1.526-4.695c1.018-0.786,3.047-1.181,6.085-1.181
				c3.081,0,5.095,0.365,6.029,1.096C766.997-107.315,767.467-105.747,767.467-103.341z"/>
			<path fill="#58595B" d="M772.966-108.928v20.618h-2.327v-20.618H772.966z"/>
			<path fill="#58595B" d="M779.264-108.928v18.456h10.604v2.162h-12.932v-20.618H779.264z"/>
			<path fill="#58595B" d="M793.435-106.965v7.024h10.464v1.963h-10.464v7.704h10.917v1.963h-13.243v-20.618h13.243v1.964H793.435z"
				/>
			<path fill="#58595B" d="M817.404-106.965v7.205h10.046v1.964h-10.046v9.485h-2.325v-20.618h12.64v1.964H817.404z"/>
			<path fill="#58595B" d="M842.87-92.676h-10.437l-1.588,4.365h-2.462l7.552-20.618h3.26l7.706,20.618h-2.432L842.87-92.676z
				 M842.187-94.427l-4.574-12.601l-4.519,12.601H842.187z"/>
			<path fill="#58595B" d="M863.155-103.341h-2.317c0-1.661-0.273-2.712-0.826-3.162c-0.553-0.448-1.857-0.675-3.915-0.675
				c-2.434,0-4.005,0.215-4.709,0.643c-0.704,0.431-1.058,1.381-1.058,2.863c0,1.662,0.274,2.674,0.828,3.037
				c0.554,0.361,2.204,0.61,4.938,0.739c3.215,0.14,5.258,0.548,6.13,1.224c0.867,0.674,1.303,2.184,1.303,4.53
				c0,2.539-0.497,4.179-1.504,4.925c-1.002,0.747-3.211,1.117-6.633,1.117c-2.977,0-4.95-0.375-5.93-1.125
				c-0.983-0.75-1.476-2.262-1.476-4.538l-0.017-0.921h2.314v0.515c0,1.84,0.281,2.986,0.845,3.434
				c0.565,0.446,2.009,0.672,4.335,0.672c2.668,0,4.311-0.226,4.922-0.672c0.615-0.447,0.922-1.645,0.922-3.585
				c0-1.261-0.206-2.098-0.626-2.517c-0.419-0.419-1.292-0.666-2.618-0.749l-2.42-0.118l-2.294-0.121
				c-3.495-0.242-5.241-2.055-5.241-5.439c0-2.348,0.51-3.913,1.528-4.695c1.011-0.786,3.043-1.181,6.084-1.181
				c3.082,0,5.09,0.365,6.024,1.096C862.686-107.315,863.155-105.747,863.155-103.341z"/>
			<path fill="#58595B" d="M873.513-106.77v18.46h-2.327v-18.46h-6.717v-2.158h15.705v2.158H873.513z"/>
			<path fill="#58595B" d="M883.742-106.965v7.024h10.464v1.963h-10.464v7.704h10.917v1.963h-13.245v-20.618h13.245v1.964H883.742z"
				/>
			<path fill="#58595B" d="M915.264-108.928v20.618h-3.82l-8.642-14.032l-1.403-2.313l-0.693-1.146l-0.693-1.146h-0.063l0.017,0.77
				l0.011,0.784v1.542v15.542h-2.325v-20.618h3.81l7.538,12.296l1.964,3.229l0.979,1.604l0.967,1.614h0.062l-0.018-0.768
				l-0.017-0.787v-1.54v-15.649H915.264z"/>
			<path fill="#58595B" d="M920.688-106.965v7.024h10.464v1.963h-10.464v7.704h10.917v1.963h-13.244v-20.618h13.244v1.964H920.688z"
				/>
			<path fill="#58595B" d="M934.597-88.31v-20.618h9.822c2.214,0,3.775,0.438,4.681,1.314c0.906,0.879,1.358,2.396,1.358,4.563
				c0,1.902-0.245,3.229-0.736,3.978c-0.5,0.753-1.438,1.236-2.825,1.46v0.045c2.181,0.162,3.276,1.489,3.276,3.987v5.271h-2.326
				v-4.743c0-2.407-1.046-3.609-3.126-3.609h-0.771h-7.025v8.353H934.597z M936.924-98.628h6.724c1.771,0,2.979-0.268,3.623-0.807
				c0.645-0.539,0.967-1.553,0.967-3.047c0-1.861-0.238-3.075-0.715-3.636c-0.481-0.565-1.505-0.848-3.077-0.848h-7.521V-98.628z"/>
			<path fill="#58595B" d="M968.008-103.341h-2.309c0-1.661-0.28-2.712-0.834-3.162c-0.555-0.448-1.855-0.675-3.909-0.675
				c-2.438,0-4.01,0.215-4.714,0.643c-0.705,0.431-1.059,1.381-1.059,2.863c0,1.662,0.281,2.674,0.836,3.037
				c0.551,0.361,2.195,0.61,4.937,0.739c3.21,0.14,5.252,0.548,6.125,1.224c0.872,0.674,1.309,2.184,1.309,4.53
				c0,2.539-0.504,4.179-1.505,4.925c-1.002,0.747-3.215,1.117-6.639,1.117c-2.97,0-4.944-0.375-5.929-1.125
				c-0.983-0.75-1.472-2.262-1.472-4.538l-0.016-0.921h2.31v0.515c0,1.84,0.285,2.986,0.844,3.434
				c0.565,0.446,2.014,0.672,4.342,0.672c2.666,0,4.306-0.226,4.92-0.672c0.616-0.447,0.924-1.645,0.924-3.585
				c0-1.261-0.213-2.098-0.627-2.517c-0.419-0.419-1.291-0.666-2.622-0.749l-2.416-0.118l-2.3-0.121
				c-3.489-0.242-5.238-2.055-5.238-5.439c0-2.348,0.507-3.913,1.526-4.695c1.017-0.786,3.047-1.181,6.084-1.181
				c3.082,0,5.094,0.365,6.028,1.096C967.539-107.315,968.008-105.747,968.008-103.341z"/>
		</g>
	</g>
</g>
</svg>
